<?xml version="1.0" encoding="UTF-8" standalone="no"?>
<!-- Generator: Adobe Illustrator 16.0.4, SVG Export Plug-In . SVG Version: 6.00 Build 0)  -->

<svg
   xmlns:dc="http://purl.org/dc/elements/1.1/"
   xmlns:cc="http://creativecommons.org/ns#"
   xmlns:rdf="http://www.w3.org/1999/02/22-rdf-syntax-ns#"
   xmlns:svg="http://www.w3.org/2000/svg"
   xmlns="http://www.w3.org/2000/svg"
   xmlns:sodipodi="http://sodipodi.sourceforge.net/DTD/sodipodi-0.dtd"
   xmlns:inkscape="http://www.inkscape.org/namespaces/inkscape"
   version="1.1"
   id="Capa_1"
   x="0px"
   y="0px"
   width="20"
   height="20"
   viewBox="0 0 20 20"
   enable-background="new 0 0 216 146"
   xml:space="preserve"
   inkscape:version="0.48.3.1 r9886"
   sodipodi:docname="erase.svg"
   inkscape:export-filename="/home/luis/erase.png"
   inkscape:export-xdpi="9.4933071"
   inkscape:export-ydpi="9.4933071"><metadata
   id="metadata9"><rdf:RDF><cc:Work
       rdf:about=""><dc:format>image/svg+xml</dc:format><dc:type
         rdf:resource="http://purl.org/dc/dcmitype/StillImage" /><dc:title /></cc:Work></rdf:RDF></metadata><defs
   id="defs7" /><sodipodi:namedview
   pagecolor="#ffffff"
   bordercolor="#666666"
   borderopacity="1"
   objecttolerance="10"
   gridtolerance="10"
   guidetolerance="10"
   inkscape:pageopacity="0"
   inkscape:pageshadow="2"
   inkscape:window-width="1360"
   inkscape:window-height="724"
   id="namedview5"
   showgrid="true"
   inkscape:zoom="25.863014"
   inkscape:cx="12.693881"
   inkscape:cy="9.7915278"
   inkscape:window-x="0"
   inkscape:window-y="22"
   inkscape:window-maximized="1"
   inkscape:current-layer="Capa_1"><inkscape:grid
     type="xygrid"
     id="grid2982"
     empspacing="5"
     visible="true"
     enabled="true"
     snapvisiblegridlinesonly="true" /></sodipodi:namedview>
<path
   d="M 18.090906,2.9372871 C 17.994944,2.6539075 17.85238,2.426835 17.663439,2.2562241 17.474496,2.0854598 17.265895,2 17.038081,2 H 10.128567 C 9.780607,2 9.4927187,2.1831928 9.2647966,2.5498833 L 1.2035112,15.350159 c -0.1499616,0.233363 -0.24139659,0.50631 -0.27441472,0.818841 -0.0330219,0.312531 -0.004532,0.610336 0.0854714,0.893713 0.095962,0.283231 0.2384153,0.510302 0.4273587,0.681065 C 1.63087,17.914541 1.8393584,18 2.0672837,18 h 6.9096246 c 0.3479596,0 0.6358488,-0.183039 0.863771,-0.549882 L 17.901963,4.649688 C 18.051706,4.4163251 18.14325,4.143532 18.176158,3.831 18.209399,3.5184691 18.1808,3.2206676 18.090901,2.9372871 z M 8.9770179,16.399908 H 2.0672836 L 5.0902653,11.59994 H 12 l -3.0229821,4.799968 z"
   id="path3"
   inkscape:connector-curvature="0"
   inkscape:export-filename="/home/luis/erase.png"
   inkscape:export-xdpi="7.5064006"
   inkscape:export-ydpi="7.5064006"
   style="fill:#4d4d4d" />
</svg>