<?xml version="1.0" encoding="UTF-8" standalone="no"?>
<!-- Generator: Adobe Illustrator 16.0.4, SVG Export Plug-In . SVG Version: 6.00 Build 0)  -->

<svg
   xmlns:dc="http://purl.org/dc/elements/1.1/"
   xmlns:cc="http://creativecommons.org/ns#"
   xmlns:rdf="http://www.w3.org/1999/02/22-rdf-syntax-ns#"
   xmlns:svg="http://www.w3.org/2000/svg"
   xmlns="http://www.w3.org/2000/svg"
   xmlns:sodipodi="http://sodipodi.sourceforge.net/DTD/sodipodi-0.dtd"
   xmlns:inkscape="http://www.inkscape.org/namespaces/inkscape"
   version="1.1"
   id="Capa_1"
   x="0px"
   y="0px"
   width="216px"
   height="146px"
   viewBox="0 0 216 146"
   enable-background="new 0 0 216 146"
   xml:space="preserve"
   inkscape:version="0.48.3.1 r9886"
   sodipodi:docname="double31.svg"
   inkscape:export-filename="/home/luis/erase.png"
   inkscape:export-xdpi="9.4933071"
   inkscape:export-ydpi="9.4933071"><metadata
   id="metadata9"><rdf:RDF><cc:Work
       rdf:about=""><dc:format>image/svg+xml</dc:format><dc:type
         rdf:resource="http://purl.org/dc/dcmitype/StillImage" /><dc:title></dc:title></cc:Work></rdf:RDF></metadata><defs
   id="defs7" /><sodipodi:namedview
   pagecolor="#ffffff"
   bordercolor="#666666"
   borderopacity="1"
   objecttolerance="10"
   gridtolerance="10"
   guidetolerance="10"
   inkscape:pageopacity="0"
   inkscape:pageshadow="2"
   inkscape:window-width="640"
   inkscape:window-height="480"
   id="namedview5"
   showgrid="false"
   inkscape:zoom="1.6164384"
   inkscape:cx="108"
   inkscape:cy="73"
   inkscape:window-x="554"
   inkscape:window-y="156"
   inkscape:window-maximized="0"
   inkscape:current-layer="Capa_1" />
<path
   d="m 199.95892,10.10942 c -1.07875,-2.5482442 -2.68136,-4.5901517 -4.80536,-6.1243417 -2.12399,-1.5355697 -4.46895,-2.3040444 -7.02992,-2.3040444 h -77.67297 c -3.91158,0 -7.14785,1.6473227 -9.71004,4.9447275 L 10.12009,121.73002 c -1.6857896,2.09847 -2.7136505,4.55289 -3.0848227,7.36328 -0.3711712,2.81039 -0.050893,5.48832 0.9608259,8.03657 1.0787571,2.54687 2.6801338,4.58877 4.8041308,6.12434 2.123995,1.53557 4.467715,2.30404 7.029918,2.30404 h 77.674213 c 3.911565,0 7.147855,-1.64595 9.710045,-4.94473 L 197.83492,25.507888 c 1.68332,-2.098475 2.71242,-4.551523 3.08235,-7.361905 0.37366,-2.810381 0.0522,-5.488317 -0.95835,-8.036563 z M 97.50559,131.1697 H 19.830142 L 53.812843,88.006815 H 131.48829 L 97.50559,131.1697 z"
   id="path3"
   inkscape:connector-curvature="0"
   inkscape:export-filename="/home/luis/erase.png"
   inkscape:export-xdpi="7.5064006"
   inkscape:export-ydpi="7.5064006" />
</svg>