<?xml version="1.0" encoding="UTF-8" standalone="no"?>
<!-- Generated by IcoMoon.io -->

<svg
   xmlns:dc="http://purl.org/dc/elements/1.1/"
   xmlns:cc="http://creativecommons.org/ns#"
   xmlns:rdf="http://www.w3.org/1999/02/22-rdf-syntax-ns#"
   xmlns:svg="http://www.w3.org/2000/svg"
   xmlns="http://www.w3.org/2000/svg"
   xmlns:sodipodi="http://sodipodi.sourceforge.net/DTD/sodipodi-0.dtd"
   xmlns:inkscape="http://www.inkscape.org/namespaces/inkscape"
   version="1.1"
   width="20"
   height="20"
   viewBox="0 0 20 20"
   id="svg2"
   inkscape:version="0.48.3.1 r9886"
   sodipodi:docname="remove-bold.svg">
  <metadata
     id="metadata13">
    <rdf:RDF>
      <cc:Work
         rdf:about="">
        <dc:format>image/svg+xml</dc:format>
        <dc:type
           rdf:resource="http://purl.org/dc/dcmitype/StillImage" />
        <dc:title />
      </cc:Work>
    </rdf:RDF>
  </metadata>
  <defs
     id="defs11" />
  <sodipodi:namedview
     pagecolor="#ffffff"
     bordercolor="#666666"
     borderopacity="1"
     objecttolerance="10"
     gridtolerance="10"
     guidetolerance="10"
     inkscape:pageopacity="0"
     inkscape:pageshadow="2"
     inkscape:window-width="1360"
     inkscape:window-height="724"
     id="namedview9"
     showgrid="false"
     inkscape:zoom="10.429825"
     inkscape:cx="0.85127372"
     inkscape:cy="3.7328982"
     inkscape:window-x="0"
     inkscape:window-y="22"
     inkscape:window-maximized="1"
     inkscape:current-layer="svg2" />
  <g
     id="icomoon-ignore"
     transform="translate(0,-12)">
    <line
       x1="0"
       y1="0"
       x2="0"
       y2="0"
       opacity=""
       id="line5"
       style="stroke:#449fdb;stroke-width:1" />
  </g>
  <path
     d="m 20.019446,16.082906 c 0,0 0,0 0,0 l -2.683935,-2.660303 2.683935,-2.660302 c 0,0 0,0 0,0 0.02903,-0.02878 0.04976,-0.06221 0.06331,-0.09783 0.03677,-0.09756 0.01575,-0.21128 -0.06331,-0.289652 L 18.751571,9.1181076 c -0.07907,-0.07837 -0.194079,-0.09892 -0.292224,-0.06275 -0.03593,0.01316 -0.06968,0.03398 -0.0987,0.06248 0,0 0,0 0,0 L 15.676713,11.778139 12.992778,9.1178346 c 0,0 0,0 0,0 -0.02903,-0.0285 -0.06276,-0.04933 -0.0987,-0.06248 -0.09843,-0.03644 -0.213156,-0.01562 -0.292224,0.06276 l -1.267876,1.2567104 c -0.07907,0.07837 -0.09981,0.19237 -0.06331,0.289652 0.01354,0.03562 0.03428,0.06906 0.06331,0.09783 0,0 0,0 0,0 l 2.683935,2.660302 -2.683935,2.660303 c 0,0 0,0 0,0 -0.02875,0.02878 -0.04976,0.06221 -0.06331,0.09783 -0.03677,0.09728 -0.01575,0.21128 0.06331,0.289652 l 1.267876,1.256712 c 0.07906,0.07837 0.194077,0.09892 0.292224,0.06276 0.03593,-0.01342 0.06968,-0.03398 0.0987,-0.06276 0,0 0,0 0,0 l 2.683935,-2.660303 2.683934,2.660303 c 0,0 0,0 0,0 0.02902,0.02878 0.06276,0.04933 0.0987,0.06276 0.09843,0.03644 0.213155,0.01562 0.292224,-0.06276 l 1.267875,-1.256712 c 0.07907,-0.07837 0.100076,-0.19237 0.06331,-0.289652 -0.01354,-0.03562 -0.03428,-0.06906 -0.06331,-0.09783 z"
     id="path7-8"
     inkscape:connector-curvature="0"
     style="fill:#4d4d4d" />
  <path
     style="fill:#4d4d4d"
     inkscape:connector-curvature="0"
     d="M 7.8115796,7.3845221 C 8.381562,6.7937308 8.7253992,6.0314745 8.7253992,5.2008858 c 0,-1.8721126 -1.7454491,-3.3953525 -3.890664,-3.3953525 H -0.02859543 V 13.689269 H 5.8074012 c 2.145215,0 3.8906646,-1.523241 3.8906646,-3.395353 0,-1.2329384 -0.7567343,-2.3143584 -1.8864862,-2.9093939 z M 2.8894029,3.5032099 h 1.5426485 c 0.8505964,0 1.5426484,0.7614073 1.5426484,1.6976759 0,0.9362687 -0.692052,1.6976767 -1.5426484,1.6976767 H 2.8894029 V 3.5032099 z m 2.416589,8.4883821 H 2.8894029 V 8.5962386 h 2.416589 c 0.8885304,0 1.6112212,0.761408 1.6112212,1.6976774 0,0.936269 -0.7226908,1.697676 -1.6112212,1.697676 z"
     id="path7-6" />
</svg>
