<?xml version="1.0" encoding="UTF-8" standalone="no"?>
<!-- Generated by IcoMoon.io -->

<svg
   xmlns:dc="http://purl.org/dc/elements/1.1/"
   xmlns:cc="http://creativecommons.org/ns#"
   xmlns:rdf="http://www.w3.org/1999/02/22-rdf-syntax-ns#"
   xmlns:svg="http://www.w3.org/2000/svg"
   xmlns="http://www.w3.org/2000/svg"
   xmlns:sodipodi="http://sodipodi.sourceforge.net/DTD/sodipodi-0.dtd"
   xmlns:inkscape="http://www.inkscape.org/namespaces/inkscape"
   version="1.1"
   width="20"
   height="20"
   viewBox="0 0 20 20"
   id="svg2"
   inkscape:version="0.48.3.1 r9886"
   sodipodi:docname="remove-italic.svg">
  <metadata
     id="metadata13">
    <rdf:RDF>
      <cc:Work
         rdf:about="">
        <dc:format>image/svg+xml</dc:format>
        <dc:type
           rdf:resource="http://purl.org/dc/dcmitype/StillImage" />
        <dc:title />
      </cc:Work>
    </rdf:RDF>
  </metadata>
  <defs
     id="defs11" />
  <sodipodi:namedview
     pagecolor="#ffffff"
     bordercolor="#666666"
     borderopacity="1"
     objecttolerance="10"
     gridtolerance="10"
     guidetolerance="10"
     inkscape:pageopacity="0"
     inkscape:pageshadow="2"
     inkscape:window-width="1360"
     inkscape:window-height="724"
     id="namedview9"
     showgrid="false"
     inkscape:zoom="10.429825"
     inkscape:cx="0.85127372"
     inkscape:cy="3.7328982"
     inkscape:window-x="0"
     inkscape:window-y="22"
     inkscape:window-maximized="1"
     inkscape:current-layer="svg2" />
  <g
     id="icomoon-ignore"
     transform="translate(0,-12)">
    <line
       x1="0"
       y1="0"
       x2="0"
       y2="0"
       opacity=""
       id="line5"
       style="stroke:#449fdb;stroke-width:1" />
  </g>
  <path
     d="M 13.836324,1.9040142 V 2.7591229 H 11.51897 L 5.7255873,13.020429 H 8.04294 v 0.855109 H -0.06779661 V 13.020429 H 2.249557 L 8.04294,2.7591229 H 5.7255873 V 1.9040142 z"
     id="path7"
     inkscape:connector-curvature="0"
     style="fill:#4d4d4d" />
  <path
     d="m 19.970993,16.660972 c 0,0 0,0 0,0 l -2.683935,-2.659128 2.683935,-2.659127 c 0,0 0,0 0,0 0.02903,-0.02876 0.04976,-0.06219 0.06331,-0.09779 0.03677,-0.09751 0.01575,-0.211186 -0.06331,-0.289523 L 18.703118,9.6992467 c -0.07907,-0.078331 -0.194079,-0.098883 -0.292224,-0.062725 -0.03593,0.013155 -0.06968,0.033974 -0.0987,0.062447 0,0 0,0 0,0 L 15.62826,12.358093 12.944325,9.6989652 c 0,0 0,0 0,0 -0.02903,-0.028494 -0.06276,-0.049313 -0.0987,-0.062447 -0.09843,-0.036436 -0.213156,-0.015617 -0.292224,0.062725 l -1.267877,1.2561555 c -0.07907,0.07833 -0.09981,0.192285 -0.06331,0.289523 0.01354,0.03561 0.03428,0.06903 0.06331,0.09779 0,0 0,0 0,0 l 2.683936,2.659127 -2.683936,2.659128 c 0,0 0,0 0,0 -0.02875,0.02876 -0.04976,0.06219 -0.06331,0.09779 -0.03677,0.09723 -0.01575,0.211186 0.06331,0.289524 l 1.267877,1.256156 c 0.07906,0.07833 0.194077,0.09888 0.292224,0.06274 0.03593,-0.01342 0.06968,-0.03397 0.0987,-0.06274 0,0 0,0 0,0 l 2.683935,-2.659127 2.683934,2.659127 c 0,0 0,0 0,0 0.02902,0.02876 0.06276,0.04931 0.0987,0.06274 0.09843,0.03644 0.213155,0.01562 0.292224,-0.06274 l 1.267875,-1.256156 c 0.07907,-0.07833 0.100076,-0.192285 0.06331,-0.289524 -0.01354,-0.03561 -0.03428,-0.06902 -0.06331,-0.09779 z"
     id="path7-8"
     inkscape:connector-curvature="0"
     style="fill:#4d4d4d" />
</svg>
