<?xml version="1.0" encoding="UTF-8" standalone="no"?>
<!-- Generated by IcoMoon.io -->

<svg
   xmlns:dc="http://purl.org/dc/elements/1.1/"
   xmlns:cc="http://creativecommons.org/ns#"
   xmlns:rdf="http://www.w3.org/1999/02/22-rdf-syntax-ns#"
   xmlns:svg="http://www.w3.org/2000/svg"
   xmlns="http://www.w3.org/2000/svg"
   xmlns:sodipodi="http://sodipodi.sourceforge.net/DTD/sodipodi-0.dtd"
   xmlns:inkscape="http://www.inkscape.org/namespaces/inkscape"
   version="1.1"
   width="22"
   height="20"
   viewBox="0 0 22 20"
   id="svg2"
   inkscape:version="0.48.5 r10040"
   sodipodi:docname="remove-underline.svg">
  <metadata
     id="metadata13">
    <rdf:RDF>
      <cc:Work
         rdf:about="">
        <dc:format>image/svg+xml</dc:format>
        <dc:type
           rdf:resource="http://purl.org/dc/dcmitype/StillImage" />
        <dc:title></dc:title>
      </cc:Work>
    </rdf:RDF>
  </metadata>
  <defs
     id="defs11" />
  <sodipodi:namedview
     pagecolor="#ffffff"
     bordercolor="#666666"
     borderopacity="1"
     objecttolerance="10"
     gridtolerance="10"
     guidetolerance="10"
     inkscape:pageopacity="0"
     inkscape:pageshadow="2"
     inkscape:window-width="1360"
     inkscape:window-height="705"
     id="namedview9"
     showgrid="false"
     inkscape:zoom="10.429825"
     inkscape:cx="-0.82660678"
     inkscape:cy="5.9260957"
     inkscape:window-x="-8"
     inkscape:window-y="-8"
     inkscape:window-maximized="1"
     inkscape:current-layer="svg2" />
  <g
     id="icomoon-ignore"
     transform="translate(0,-12)">
    <line
       x1="0"
       y1="0"
       x2="0"
       y2="0"
       opacity=""
       id="line5"
       style="stroke:#449fdb;stroke-width:1" />
  </g>
  <path
     d="m 21.937024,15.891148 c 0,0 0,0 0,0 l -2.683935,-2.660303 2.683935,-2.660302 c 0,0 0,0 0,0 0.02903,-0.02878 0.04976,-0.06221 0.06331,-0.09783 0.03677,-0.09756 0.01575,-0.21128 -0.06331,-0.289652 L 20.669149,8.9263498 c -0.07907,-0.07837 -0.194079,-0.09892 -0.292224,-0.06275 -0.03593,0.01316 -0.06968,0.03398 -0.0987,0.06248 0,0 0,0 0,0 L 17.594291,11.586381 14.910356,8.9260768 c 0,0 0,0 0,0 -0.02903,-0.0285 -0.06276,-0.04933 -0.0987,-0.06248 -0.09843,-0.03644 -0.213156,-0.01562 -0.292224,0.06276 l -1.267876,1.2567102 c -0.07907,0.07837 -0.09981,0.19237 -0.06331,0.289652 0.01354,0.03562 0.03428,0.06906 0.06331,0.09783 0,0 0,0 0,0 l 2.683935,2.660302 -2.683935,2.660303 c 0,0 0,0 0,0 -0.02875,0.02878 -0.04976,0.06221 -0.06331,0.09783 -0.03677,0.09728 -0.01575,0.21128 0.06331,0.289652 l 1.267876,1.256712 c 0.07906,0.07837 0.194077,0.09892 0.292224,0.06276 0.03593,-0.01342 0.06968,-0.03398 0.0987,-0.06276 0,0 0,0 0,0 l 2.683935,-2.660303 2.683934,2.660303 c 0,0 0,0 0,0 0.02902,0.02878 0.06276,0.04933 0.0987,0.06276 0.09843,0.03644 0.213155,0.01562 0.292224,-0.06276 l 1.267875,-1.256712 c 0.07907,-0.07837 0.100076,-0.19237 0.06331,-0.289652 -0.01354,-0.03562 -0.03428,-0.06906 -0.06331,-0.09783 z"
     id="path7-8"
     inkscape:connector-curvature="0"
     style="fill:#4d4d4d" />
  <g
     style="fill:#4d4d4d;fill-opacity:1"
     id="icomoon-ignore-4"
     transform="matrix(0.55895713,0,0,0.55484803,-3.3823386,0.28811736)" />
  <text
     xml:space="preserve"
     style="font-size:21.0301857px;font-style:normal;font-variant:normal;font-weight:normal;font-stretch:normal;line-height:125%;letter-spacing:0px;word-spacing:0px;fill:#4d4d4d;fill-opacity:1;stroke:none;font-family:Trebuchet MS;-inkscape-font-specification:Trebuchet MS"
     x="-0.83506083"
     y="14.285547"
     id="text3799"
     sodipodi:linespacing="125%"
     transform="scale(1.1363125,0.88003957)"><tspan
       sodipodi:role="line"
       id="tspan3801"
       x="-0.83506083"
       y="14.285547"
       style="font-style:normal;font-variant:normal;font-weight:bold;font-stretch:normal;fill:#4d4d4d;fill-opacity:1;font-family:Times New Roman;-inkscape-font-specification:Times New Roman">S</tspan></text>
  <rect
     style="fill:#4d4d4d;fill-opacity:1"
     id="rect3803"
     width="11.409588"
     height="1.9175779"
     x="0.19175597"
     y="15.206056" />
</svg>
