<?xml version="1.0" encoding="UTF-8" standalone="no"?>
<!-- Generator: Adobe Illustrator 16.0.4, SVG Export Plug-In . SVG Version: 6.00 Build 0)  -->

<svg
   xmlns:dc="http://purl.org/dc/elements/1.1/"
   xmlns:cc="http://creativecommons.org/ns#"
   xmlns:rdf="http://www.w3.org/1999/02/22-rdf-syntax-ns#"
   xmlns:svg="http://www.w3.org/2000/svg"
   xmlns="http://www.w3.org/2000/svg"
   xmlns:sodipodi="http://sodipodi.sourceforge.net/DTD/sodipodi-0.dtd"
   xmlns:inkscape="http://www.inkscape.org/namespaces/inkscape"
   version="1.1"
   id="Layer_1"
   x="0px"
   y="0px"
   width="20"
   height="20"
   viewBox="0 0 20 20"
   enable-background="new 0 0 24 24"
   xml:space="preserve"
   inkscape:version="0.48.3.1 r9886"
   sodipodi:docname="ruler.svg"><metadata
   id="metadata9"><rdf:RDF><cc:Work
       rdf:about=""><dc:format>image/svg+xml</dc:format><dc:type
         rdf:resource="http://purl.org/dc/dcmitype/StillImage" /></cc:Work></rdf:RDF></metadata><defs
   id="defs7" /><sodipodi:namedview
   pagecolor="#ffffff"
   bordercolor="#666666"
   borderopacity="1"
   objecttolerance="10"
   gridtolerance="10"
   guidetolerance="10"
   inkscape:pageopacity="0"
   inkscape:pageshadow="2"
   inkscape:window-width="1360"
   inkscape:window-height="724"
   id="namedview5"
   showgrid="true"
   inkscape:zoom="19.666667"
   inkscape:cx="22.14909"
   inkscape:cy="10.046735"
   inkscape:window-x="0"
   inkscape:window-y="22"
   inkscape:window-maximized="1"
   inkscape:current-layer="Layer_1"
   showguides="true"
   inkscape:guide-bbox="true"
   inkscape:snap-grids="false"><inkscape:grid
     type="xygrid"
     id="grid2986"
     empspacing="5"
     visible="true"
     enabled="true"
     snapvisiblegridlinesonly="true" /><sodipodi:guide
     orientation="1,0"
     position="-4,18"
     id="guide3001" /></sodipodi:namedview>
<path
   d="M 14.047013,0.6803177 0.58867872,14.138652 6.1303453,19.680318 19.588679,6.2219844 14.047013,0.6803177 z M 2.2511786,14.138652 l 1.0845833,-1.084584 1.425,1.426584 0.8391667,-0.84075 -1.4249999,-1.426584 1.3774999,-1.375916 2.6125,2.6125 0.8399581,-0.84075 L 6.3923868,9.9974428 7.7295119,8.6603177 9.1149287,10.045734 9.9548867,9.2057768 8.5694702,7.8203598 9.9065947,6.4832344 l 2.6125023,2.6124992 0.839166,-0.8391659 -2.6125,-2.6124999 1.375917,-1.3767084 1.426583,1.425 0.84075,-0.8399582 -1.426583,-1.425 1.084583,-1.0845835 3.879166,3.8791667 L 6.1303453,18.017818 2.2511786,14.138652 z"
   id="path3"
   inkscape:connector-curvature="0" />
</svg>