<?xml version="1.0" encoding="UTF-8" standalone="no"?>
<!-- Generated by IcoMoon.io -->

<svg
   xmlns:dc="http://purl.org/dc/elements/1.1/"
   xmlns:cc="http://creativecommons.org/ns#"
   xmlns:rdf="http://www.w3.org/1999/02/22-rdf-syntax-ns#"
   xmlns:svg="http://www.w3.org/2000/svg"
   xmlns="http://www.w3.org/2000/svg"
   xmlns:sodipodi="http://sodipodi.sourceforge.net/DTD/sodipodi-0.dtd"
   xmlns:inkscape="http://www.inkscape.org/namespaces/inkscape"
   version="1.1"
   width="22"
   height="20"
   viewBox="0 0 22 20"
   id="svg2"
   inkscape:version="0.48.3.1 r9886"
   sodipodi:docname="text-height.svg">
  <metadata
     id="metadata13">
    <rdf:RDF>
      <cc:Work
         rdf:about="">
        <dc:format>image/svg+xml</dc:format>
        <dc:type
           rdf:resource="http://purl.org/dc/dcmitype/StillImage" />
        <dc:title></dc:title>
      </cc:Work>
    </rdf:RDF>
  </metadata>
  <defs
     id="defs11" />
  <sodipodi:namedview
     pagecolor="#ffffff"
     bordercolor="#666666"
     borderopacity="1"
     objecttolerance="10"
     gridtolerance="10"
     guidetolerance="10"
     inkscape:pageopacity="0"
     inkscape:pageshadow="2"
     inkscape:window-width="1360"
     inkscape:window-height="724"
     id="namedview9"
     showgrid="false"
     inkscape:zoom="14.75"
     inkscape:cx="21.844562"
     inkscape:cy="4.1488786"
     inkscape:window-x="0"
     inkscape:window-y="22"
     inkscape:window-maximized="1"
     inkscape:current-layer="svg2" />
  <g
     id="icomoon-ignore"
     transform="translate(0,-12)">
    <line
       x1="0"
       y1="0"
       x2="0"
       y2="0"
       opacity=""
       id="line5"
       style="stroke:#449fdb;stroke-width:1" />
  </g>
  <path
     style="fill:#4d4d4d"
     d="m 9.6590057,2.2908822 0,4.3781095 1.2500143,-2.2023218 3.750043,0 0,12.0199011 -2.500029,0 0,1.087894 7.500086,0 0,-1.087894 -2.500029,0 0,-12.0199011 3.750043,0 1.250015,2.2023218 0,-4.3781095 -12.5001433,0 z"
     id="path7"
     inkscape:connector-curvature="0" />
  <path
     style="fill:#4d4d4d;fill-opacity:1;stroke:none"
     d="m 0.14355563,13.115929 3.43753937,4.563847 3.2187868,-4.616915 -2.8437825,0.02653 0,-6.8192379 2.8125322,-0.026534 -3.406289,-4.5638471 -3.21878687,4.6169151 2.68753077,-0.026534 0,6.8192379 -2.68753077,0.02653 z"
     id="rect3029"
     inkscape:connector-curvature="0" />
</svg>
