<?xml version="1.0" encoding="UTF-8" standalone="no"?>
<!-- Generated by IcoMoon.io -->

<svg
   xmlns:dc="http://purl.org/dc/elements/1.1/"
   xmlns:cc="http://creativecommons.org/ns#"
   xmlns:rdf="http://www.w3.org/1999/02/22-rdf-syntax-ns#"
   xmlns:svg="http://www.w3.org/2000/svg"
   xmlns="http://www.w3.org/2000/svg"
   xmlns:sodipodi="http://sodipodi.sourceforge.net/DTD/sodipodi-0.dtd"
   xmlns:inkscape="http://www.inkscape.org/namespaces/inkscape"
   version="1.1"
   width="20"
   height="20"
   viewBox="0 0 20 20"
   id="svg2"
   inkscape:version="0.48.3.1 r9886"
   sodipodi:docname="undo.svg">
  <metadata
     id="metadata13">
    <rdf:RDF>
      <cc:Work
         rdf:about="">
        <dc:format>image/svg+xml</dc:format>
        <dc:type
           rdf:resource="http://purl.org/dc/dcmitype/StillImage" />
        <dc:title />
      </cc:Work>
    </rdf:RDF>
  </metadata>
  <defs
     id="defs11" />
  <sodipodi:namedview
     pagecolor="#ffffff"
     bordercolor="#666666"
     borderopacity="1"
     objecttolerance="10"
     gridtolerance="10"
     guidetolerance="10"
     inkscape:pageopacity="0"
     inkscape:pageshadow="2"
     inkscape:window-width="1360"
     inkscape:window-height="724"
     id="namedview9"
     showgrid="false"
     inkscape:zoom="7.375"
     inkscape:cx="-7.1864407"
     inkscape:cy="16"
     inkscape:window-x="0"
     inkscape:window-y="22"
     inkscape:window-maximized="1"
     inkscape:current-layer="svg2" />
  <g
     id="icomoon-ignore"
     transform="matrix(0.49311997,0,0,0.49229511,2.3707146,2.2126584)"
     style="fill:#333333">
    <line
       x1="0"
       y1="0"
       x2="0"
       y2="0"
       opacity=""
       id="line5"
       style="fill:#333333;stroke:#449fdb;stroke-width:1" />
  </g>
  <path
     d="M 15.8393,4.5200455 C 14.411717,3.0943589 12.439238,2.2126584 10.260634,2.2126584 c -3.3823098,0 -6.2670617,2.1247456 -7.3889095,5.1105154 L 4.7189518,8.0148487 C 5.5602145,5.7758904 7.7240249,4.1818388 10.260634,4.1818388 c 1.6342,0 3.113066,0.6616446 4.184123,1.7304173 l -2.211643,2.2079436 h 5.91744 V 2.2126584 L 15.8393,4.5200455 z M 10.260634,15.996922 c -1.6341996,0 -3.1130664,-0.661153 -4.1841229,-1.730417 l 2.211643,-2.207944 H 2.3707146 v 5.907541 l 2.3112532,-2.307387 c 1.4275823,1.425686 3.3995691,2.307387 5.5786662,2.307387 3.38231,0 6.267062,-2.124746 7.38891,-5.110516 l -1.847228,-0.691674 c -0.841262,2.238958 -3.005073,3.83301 -5.541682,3.83301 z"
     id="path7"
     inkscape:connector-curvature="0"
     style="fill:#4d4d4d;fill-opacity:1" />
</svg>
